# xmcd
# 
# Track frame offsets:
#     182
#     17427
#     30037
#     43775
#     60075
#     75302
#     95022
#     111475
#     131237
#     150790
#     165712
#     181055
#     198842
#     215687
#     234047
# 
# Disc length: 3301
# 
# Revision: 2
# Processed by: cddbd v1.5.2PL0 Copyright (c) Steve Scherf et al.
# Submitted via: fre:ac v1.0.17
# 
DISCID=a70ce30f
DTITLE=Music Maestro - Country Hits Of The 90's Vol. 4 - MM6022
DYEAR=0
DGENRE=Karaoke
TTITLE0=Loveless, Patty - Blame It On Your Heart
TTITLE1=Jackson, Alan - Chattahoochee
TTITLE2=Alabama - I'm In A Hurry And I Don't Know Why
TTITLE3=Cyrus, Billy Ray - She's Not Crying Anymore
TTITLE4=Kershaw, Sammy - She Don't Know She's Beautiful
TTITLE5=Carpenter, Mary Chapin - Hard Way, The
TTITLE6=Confederate Railroad, The - Queen Of Memphis
TTITLE7=Brooks, Garth - Learning To Live Again
TTITLE8=Morgan, Lorrie - I Guess You Had To Be There
TTITLE9=Lawrence, Tracy - Alibis
TTITLE10=Stone, Doug - Made For Lovin' You
TTITLE11=Yearwood, Trisha - You Say You Will
TTITLE12=Diffie, Joe - Honky Tonk Attitude
TTITLE13=Judd, Wynonna - Tell Me Why
TTITLE14=Brooks and Dunn - Hard Workin' Man
EXTD=
EXTT0=
EXTT1=
EXTT2=
EXTT3=
EXTT4=
EXTT5=
EXTT6=
EXTT7=
EXTT8=
EXTT9=
EXTT10=
EXTT11=
EXTT12=
EXTT13=
EXTT14=
PLAYORDER=
